<?xml version="1.0" encoding="utf-8"?>
<svg xmlns="http://www.w3.org/2000/svg" width="585" height="585" class="segno"><path transform="scale(15)" class="qrline" stroke="#000" d="M3 3.5h7m1 0h1m4 0h3m1 0h3m1 0h4m1 0h7m-33 1h1m5 0h1m2 0h3m2 0h1m1 0h3m2 0h1m1 0h1m2 0h1m5 0h1m-33 1h1m1 0h3m1 0h1m2 0h1m2 0h1m1 0h2m4 0h1m1 0h3m1 0h1m1 0h3m1 0h1m-33 1h1m1 0h3m1 0h1m1 0h1m1 0h2m2 0h2m1 0h1m2 0h1m1 0h1m3 0h1m1 0h3m1 0h1m-33 1h1m1 0h3m1 0h1m2 0h1m1 0h3m2 0h1m4 0h2m1 0h1m1 0h1m1 0h3m1 0h1m-33 1h1m5 0h1m2 0h1m2 0h1m1 0h2m1 0h1m1 0h1m2 0h3m1 0h1m5 0h1m-33 1h7m1 0h1m1 0h1m1 0h1m1 0h1m1 0h1m1 0h1m1 0h1m1 0h1m1 0h1m1 0h7m-24 1h1m1 0h1m1 0h2m2 0h3m1 0h4m-23 1h1m1 0h3m1 0h4m1 0h1m2 0h4m1 0h1m2 0h2m3 0h1m2 0h1m-33 1h2m2 0h2m2 0h1m2 0h1m2 0h2m2 0h1m1 0h2m4 0h1m2 0h1m2 0h1m-33 1h3m2 0h3m1 0h4m1 0h3m5 0h1m1 0h2m2 0h2m1 0h2m-32 1h3m3 0h1m2 0h3m1 0h2m1 0h1m1 0h3m1 0h4m5 0h1m-33 1h5m1 0h1m1 0h1m1 0h7m3 0h1m1 0h1m1 0h3m4 0h2m-30 1h1m1 0h1m1 0h2m2 0h4m5 0h1m3 0h3m2 0h1m1 0h2m-33 1h4m1 0h7m4 0h1m2 0h1m1 0h1m3 0h1m4 0h3m-30 1h1m1 0h1m4 0h3m1 0h1m2 0h1m3 0h7m3 0h1m-32 1h1m1 0h2m2 0h1m1 0h4m4 0h1m2 0h1m1 0h2m2 0h2m5 0h1m-32 1h4m3 0h3m1 0h2m1 0h1m2 0h2m1 0h1m3 0h2m2 0h2m1 0h1m-33 1h2m1 0h2m1 0h2m4 0h1m1 0h2m4 0h1m1 0h1m7 0h3m-33 1h3m1 0h1m2 0h1m2 0h2m1 0h2m3 0h1m2 0h2m5 0h1m3 0h1m-33 1h3m2 0h3m2 0h1m1 0h5m1 0h1m2 0h1m2 0h3m2 0h1m2 0h1m-32 1h5m3 0h1m2 0h2m3 0h1m3 0h1m2 0h4m3 0h2m-33 1h1m1 0h2m1 0h3m1 0h1m1 0h1m1 0h1m1 0h2m2 0h1m4 0h1m1 0h2m1 0h1m1 0h2m-32 1h2m5 0h1m2 0h1m1 0h1m2 0h1m2 0h1m1 0h2m1 0h2m5 0h2m-33 1h1m1 0h1m1 0h3m1 0h1m1 0h3m1 0h2m1 0h2m2 0h1m1 0h7m1 0h1m-24 1h1m1 0h2m1 0h1m1 0h1m1 0h2m3 0h1m1 0h1m3 0h1m3 0h1m-33 1h7m2 0h2m2 0h4m2 0h3m1 0h2m1 0h1m1 0h5m-33 1h1m5 0h1m1 0h3m2 0h1m2 0h2m1 0h1m4 0h1m3 0h2m2 0h1m-33 1h1m1 0h3m1 0h1m1 0h2m1 0h4m1 0h1m1 0h1m1 0h1m3 0h5m2 0h1m-32 1h1m1 0h3m1 0h1m3 0h1m1 0h4m5 0h1m6 0h1m2 0h2m-33 1h1m1 0h3m1 0h1m1 0h1m3 0h2m9 0h3m1 0h4m1 0h1m-33 1h1m5 0h1m5 0h2m1 0h2m1 0h1m2 0h5m1 0h1m3 0h1m-32 1h7m4 0h1m1 0h2m2 0h1m1 0h2m1 0h3m2 0h3m1 0h2"/></svg>
